<?xml version="1.0" encoding="UTF-8" standalone="no"?>
<!-- Created with Inkscape (http://www.inkscape.org/) -->

<svg
   xmlns:dc="http://purl.org/dc/elements/1.1/"
   xmlns:cc="http://creativecommons.org/ns#"
   xmlns:rdf="http://www.w3.org/1999/02/22-rdf-syntax-ns#"
   xmlns:svg="http://www.w3.org/2000/svg"
   xmlns="http://www.w3.org/2000/svg"
   xmlns:sodipodi="http://sodipodi.sourceforge.net/DTD/sodipodi-0.dtd"
   xmlns:inkscape="http://www.inkscape.org/namespaces/inkscape"
   width="210mm"
   height="297mm"
   viewBox="0 0 210 297"
   version="1.1"
   id="svg104"
   inkscape:version="0.92.1 r15371"
   sodipodi:docname="logo.svg">
  <defs
     id="defs98" />
  <sodipodi:namedview
     id="base"
     pagecolor="#ffffff"
     bordercolor="#666666"
     borderopacity="1.0"
     inkscape:pageopacity="0.0"
     inkscape:pageshadow="2"
     inkscape:zoom="0.35"
     inkscape:cx="-27.142857"
     inkscape:cy="560"
     inkscape:document-units="mm"
     inkscape:current-layer="layer1"
     showgrid="false"
     inkscape:window-width="2498"
     inkscape:window-height="1057"
     inkscape:window-x="54"
     inkscape:window-y="-8"
     inkscape:window-maximized="1" />
  <metadata
     id="metadata101">
    <rdf:RDF>
      <cc:Work
         rdf:about="">
        <dc:format>image/svg+xml</dc:format>
        <dc:type
           rdf:resource="http://purl.org/dc/dcmitype/StillImage" />
        <dc:title></dc:title>
      </cc:Work>
    </rdf:RDF>
  </metadata>
  <g
     inkscape:label="Layer 1"
     inkscape:groupmode="layer"
     id="layer1">
    <g
       transform="matrix(0.1638938,0,0,0.1638938,109.13468,190.65344)"
       id="g73">
      <g
         transform="translate(153.81377,107.79511)"
         id="g59"
         style="font-style:normal;font-weight:normal;font-size:545.08166504px;line-height:125%;font-family:sans-serif;letter-spacing:2.72540855px;word-spacing:0px;fill:#00ff00;fill-opacity:1;stroke:none;stroke-width:13.62704086px;stroke-linecap:butt;stroke-linejoin:miter;stroke-opacity:1"
         aria-label=".">
        <path
           inkscape:connector-curvature="0"
           id="path57"
           style="font-style:normal;font-variant:normal;font-weight:normal;font-stretch:normal;font-family:'Odin Rounded';-inkscape-font-specification:'Odin Rounded';fill:#00ff00;stroke-width:13.62704086px"
           d="m 334.50575,-679.31938 q 11.44671,0 19.62294,8.17622 8.17622,8.17623 8.17622,19.62294 0,10.90163 -8.17622,19.07786 -8.17623,7.63114 -19.62294,7.63114 -10.90163,0 -19.07786,-7.63114 -7.63114,-8.17623 -7.63114,-19.07786 0,-11.44671 7.63114,-19.62294 8.17623,-8.17622 19.07786,-8.17622 z" />
      </g>
      <g
         aria-label="."
         style="font-style:normal;font-weight:normal;font-size:545.08166504px;line-height:125%;font-family:sans-serif;letter-spacing:2.72540855px;word-spacing:0px;fill:#0000ff;fill-opacity:1;stroke:none;stroke-width:13.62704086px;stroke-linecap:butt;stroke-linejoin:miter;stroke-opacity:1"
         id="g63"
         transform="translate(161.75132,136.89946)">
        <path
           d="m 334.50575,-679.31938 q 11.44671,0 19.62294,8.17622 8.17622,8.17623 8.17622,19.62294 0,10.90163 -8.17622,19.07786 -8.17623,7.63114 -19.62294,7.63114 -10.90163,0 -19.07786,-7.63114 -7.63114,-8.17623 -7.63114,-19.07786 0,-11.44671 7.63114,-19.62294 8.17623,-8.17622 19.07786,-8.17622 z"
           style="font-style:normal;font-variant:normal;font-weight:normal;font-stretch:normal;font-family:'Odin Rounded';-inkscape-font-specification:'Odin Rounded';fill:#0000ff;stroke-width:13.62704086px"
           id="path61"
           inkscape:connector-curvature="0" />
      </g>
      <g
         aria-label="."
         style="font-style:normal;font-weight:normal;font-size:545.08166504px;line-height:125%;font-family:sans-serif;letter-spacing:2.72540855px;word-spacing:0px;fill:#ff0000;fill-opacity:1;stroke:none;stroke-width:13.62704086px;stroke-linecap:butt;stroke-linejoin:miter;stroke-opacity:1"
         id="g67"
         transform="translate(187.15148,115.20349)">
        <path
           d="m 334.50575,-679.31938 q 11.44671,0 19.62294,8.17622 8.17622,8.17623 8.17622,19.62294 0,10.90163 -8.17622,19.07786 -8.17623,7.63114 -19.62294,7.63114 -10.90163,0 -19.07786,-7.63114 -7.63114,-8.17623 -7.63114,-19.07786 0,-11.44671 7.63114,-19.62294 8.17623,-8.17622 19.07786,-8.17622 z"
           style="font-style:normal;font-variant:normal;font-weight:normal;font-stretch:normal;font-family:'Odin Rounded';-inkscape-font-specification:'Odin Rounded';fill:#ff0000;stroke-width:13.62704086px"
           id="path65"
           inkscape:connector-curvature="0" />
      </g>
      <g
         aria-label="."
         style="font-style:normal;font-weight:normal;font-size:545.08166504px;line-height:125%;font-family:sans-serif;letter-spacing:2.72540855px;word-spacing:0px;fill:#000000;fill-opacity:1;stroke:none;stroke-width:13.62704086px;stroke-linecap:butt;stroke-linejoin:miter;stroke-opacity:1"
         id="g71"
         transform="translate(167.57219,121.02436)">
        <path
           d="m 334.50575,-679.31938 q 11.44671,0 19.62294,8.17622 8.17622,8.17623 8.17622,19.62294 0,10.90163 -8.17622,19.07786 -8.17623,7.63114 -19.62294,7.63114 -10.90163,0 -19.07786,-7.63114 -7.63114,-8.17623 -7.63114,-19.07786 0,-11.44671 7.63114,-19.62294 8.17623,-8.17622 19.07786,-8.17622 z"
           style="font-style:normal;font-variant:normal;font-weight:normal;font-stretch:normal;font-family:'Odin Rounded';-inkscape-font-specification:'Odin Rounded';stroke-width:13.62704086px"
           id="path69"
           inkscape:connector-curvature="0" />
      </g>
    </g>
    <g
       id="g55"
       transform="matrix(0.1638938,0,0,0.1638938,-12.813146,139.11206)">
      <g
         aria-label="."
         style="font-style:normal;font-weight:normal;font-size:545.08166504px;line-height:125%;font-family:sans-serif;letter-spacing:2.72540855px;word-spacing:0px;fill:#00ff00;fill-opacity:1;stroke:none;stroke-width:13.62704086px;stroke-linecap:butt;stroke-linejoin:miter;stroke-opacity:1"
         id="g37"
         transform="translate(153.81377,107.79511)">
        <path
           d="m 334.50575,-679.31938 q 11.44671,0 19.62294,8.17622 8.17622,8.17623 8.17622,19.62294 0,10.90163 -8.17622,19.07786 -8.17623,7.63114 -19.62294,7.63114 -10.90163,0 -19.07786,-7.63114 -7.63114,-8.17623 -7.63114,-19.07786 0,-11.44671 7.63114,-19.62294 8.17623,-8.17622 19.07786,-8.17622 z"
           style="font-style:normal;font-variant:normal;font-weight:normal;font-stretch:normal;font-family:'Odin Rounded';-inkscape-font-specification:'Odin Rounded';fill:#00ff00;stroke-width:13.62704086px"
           id="path35"
           inkscape:connector-curvature="0" />
      </g>
      <g
         transform="translate(161.75132,136.89946)"
         id="g45"
         style="font-style:normal;font-weight:normal;font-size:545.08166504px;line-height:125%;font-family:sans-serif;letter-spacing:2.72540855px;word-spacing:0px;fill:#0000ff;fill-opacity:1;stroke:none;stroke-width:13.62704086px;stroke-linecap:butt;stroke-linejoin:miter;stroke-opacity:1"
         aria-label=".">
        <path
           inkscape:connector-curvature="0"
           id="path43"
           style="font-style:normal;font-variant:normal;font-weight:normal;font-stretch:normal;font-family:'Odin Rounded';-inkscape-font-specification:'Odin Rounded';fill:#0000ff;stroke-width:13.62704086px"
           d="m 334.50575,-679.31938 q 11.44671,0 19.62294,8.17622 8.17622,8.17623 8.17622,19.62294 0,10.90163 -8.17622,19.07786 -8.17623,7.63114 -19.62294,7.63114 -10.90163,0 -19.07786,-7.63114 -7.63114,-8.17623 -7.63114,-19.07786 0,-11.44671 7.63114,-19.62294 8.17623,-8.17622 19.07786,-8.17622 z" />
      </g>
      <g
         transform="translate(187.15148,115.20349)"
         id="g41"
         style="font-style:normal;font-weight:normal;font-size:545.08166504px;line-height:125%;font-family:sans-serif;letter-spacing:2.72540855px;word-spacing:0px;fill:#ff0000;fill-opacity:1;stroke:none;stroke-width:13.62704086px;stroke-linecap:butt;stroke-linejoin:miter;stroke-opacity:1"
         aria-label=".">
        <path
           inkscape:connector-curvature="0"
           id="path39"
           style="font-style:normal;font-variant:normal;font-weight:normal;font-stretch:normal;font-family:'Odin Rounded';-inkscape-font-specification:'Odin Rounded';fill:#ff0000;stroke-width:13.62704086px"
           d="m 334.50575,-679.31938 q 11.44671,0 19.62294,8.17622 8.17622,8.17623 8.17622,19.62294 0,10.90163 -8.17622,19.07786 -8.17623,7.63114 -19.62294,7.63114 -10.90163,0 -19.07786,-7.63114 -7.63114,-8.17623 -7.63114,-19.07786 0,-11.44671 7.63114,-19.62294 8.17623,-8.17622 19.07786,-8.17622 z" />
      </g>
      <g
         transform="translate(167.57219,121.02436)"
         id="text30"
         style="font-style:normal;font-weight:normal;font-size:545.08166504px;line-height:125%;font-family:sans-serif;letter-spacing:2.72540855px;word-spacing:0px;fill:#000000;fill-opacity:1;stroke:none;stroke-width:13.62704086px;stroke-linecap:butt;stroke-linejoin:miter;stroke-opacity:1"
         aria-label=".">
        <path
           inkscape:connector-curvature="0"
           id="path32"
           style="font-style:normal;font-variant:normal;font-weight:normal;font-stretch:normal;font-family:'Odin Rounded';-inkscape-font-specification:'Odin Rounded';stroke-width:13.62704086px"
           d="m 334.50575,-679.31938 q 11.44671,0 19.62294,8.17622 8.17622,8.17623 8.17622,19.62294 0,10.90163 -8.17622,19.07786 -8.17623,7.63114 -19.62294,7.63114 -10.90163,0 -19.07786,-7.63114 -7.63114,-8.17623 -7.63114,-19.07786 0,-11.44671 7.63114,-19.62294 8.17623,-8.17622 19.07786,-8.17622 z" />
      </g>
    </g>
    <text
       xml:space="preserve"
       style="font-style:normal;font-weight:normal;font-size:89.33550262px;line-height:125%;font-family:sans-serif;letter-spacing:0.4466776px;word-spacing:0px;fill:#000000;fill-opacity:1;stroke:none;stroke-width:2.23338747px;stroke-linecap:butt;stroke-linejoin:miter;stroke-opacity:1"
       x="12.816429"
       y="108.10944"
       id="text26"><tspan
         sodipodi:role="line"
         id="tspan24"
         x="12.816429"
         y="108.10944"
         style="font-style:normal;font-variant:normal;font-weight:normal;font-stretch:normal;font-family:'Odin Rounded';-inkscape-font-specification:'Odin Rounded';fill:#000000;stroke-width:2.23338747px">vitor.</tspan></text>
    <g
       transform="matrix(0.5978685,0,0,0.5978685,-202.71974,530.01413)"
       id="g170"
       inkscape:export-xdpi="123.81"
       inkscape:export-ydpi="123.81">
      <g
         transform="translate(153.81377,107.79511)"
         id="g156"
         style="font-style:normal;font-weight:normal;font-size:545.08166504px;line-height:125%;font-family:sans-serif;letter-spacing:2.72540855px;word-spacing:0px;fill:#00ff00;fill-opacity:1;stroke:none;stroke-width:13.62704086px;stroke-linecap:butt;stroke-linejoin:miter;stroke-opacity:1"
         aria-label=".">
        <path
           inkscape:connector-curvature="0"
           id="path154"
           style="font-style:normal;font-variant:normal;font-weight:normal;font-stretch:normal;font-family:'Odin Rounded';-inkscape-font-specification:'Odin Rounded';fill:#00ff00;stroke-width:13.62704086px"
           d="m 334.50575,-679.31938 q 11.44671,0 19.62294,8.17622 8.17622,8.17623 8.17622,19.62294 0,10.90163 -8.17622,19.07786 -8.17623,7.63114 -19.62294,7.63114 -10.90163,0 -19.07786,-7.63114 -7.63114,-8.17623 -7.63114,-19.07786 0,-11.44671 7.63114,-19.62294 8.17623,-8.17622 19.07786,-8.17622 z" />
      </g>
      <g
         aria-label="."
         style="font-style:normal;font-weight:normal;font-size:545.08166504px;line-height:125%;font-family:sans-serif;letter-spacing:2.72540855px;word-spacing:0px;fill:#0000ff;fill-opacity:1;stroke:none;stroke-width:13.62704086px;stroke-linecap:butt;stroke-linejoin:miter;stroke-opacity:1"
         id="g160"
         transform="translate(161.75132,136.89946)">
        <path
           d="m 334.50575,-679.31938 q 11.44671,0 19.62294,8.17622 8.17622,8.17623 8.17622,19.62294 0,10.90163 -8.17622,19.07786 -8.17623,7.63114 -19.62294,7.63114 -10.90163,0 -19.07786,-7.63114 -7.63114,-8.17623 -7.63114,-19.07786 0,-11.44671 7.63114,-19.62294 8.17623,-8.17622 19.07786,-8.17622 z"
           style="font-style:normal;font-variant:normal;font-weight:normal;font-stretch:normal;font-family:'Odin Rounded';-inkscape-font-specification:'Odin Rounded';fill:#0000ff;stroke-width:13.62704086px"
           id="path158"
           inkscape:connector-curvature="0" />
      </g>
      <g
         aria-label="."
         style="font-style:normal;font-weight:normal;font-size:545.08166504px;line-height:125%;font-family:sans-serif;letter-spacing:2.72540855px;word-spacing:0px;fill:#ff0000;fill-opacity:1;stroke:none;stroke-width:13.62704086px;stroke-linecap:butt;stroke-linejoin:miter;stroke-opacity:1"
         id="g164"
         transform="translate(187.15148,115.20349)">
        <path
           d="m 334.50575,-679.31938 q 11.44671,0 19.62294,8.17622 8.17622,8.17623 8.17622,19.62294 0,10.90163 -8.17622,19.07786 -8.17623,7.63114 -19.62294,7.63114 -10.90163,0 -19.07786,-7.63114 -7.63114,-8.17623 -7.63114,-19.07786 0,-11.44671 7.63114,-19.62294 8.17623,-8.17622 19.07786,-8.17622 z"
           style="font-style:normal;font-variant:normal;font-weight:normal;font-stretch:normal;font-family:'Odin Rounded';-inkscape-font-specification:'Odin Rounded';fill:#ff0000;stroke-width:13.62704086px"
           id="path162"
           inkscape:connector-curvature="0" />
      </g>
      <g
         aria-label="."
         style="font-style:normal;font-weight:normal;font-size:545.08166504px;line-height:125%;font-family:sans-serif;letter-spacing:2.72540855px;word-spacing:0px;fill:#000000;fill-opacity:1;stroke:none;stroke-width:13.62704086px;stroke-linecap:butt;stroke-linejoin:miter;stroke-opacity:1"
         id="g168"
         transform="translate(167.57219,121.02436)">
        <path
           d="m 334.50575,-679.31938 q 11.44671,0 19.62294,8.17622 8.17622,8.17623 8.17622,19.62294 0,10.90163 -8.17622,19.07786 -8.17623,7.63114 -19.62294,7.63114 -10.90163,0 -19.07786,-7.63114 -7.63114,-8.17623 -7.63114,-19.07786 0,-11.44671 7.63114,-19.62294 8.17623,-8.17622 19.07786,-8.17622 z"
           style="font-style:normal;font-variant:normal;font-weight:normal;font-stretch:normal;font-family:'Odin Rounded';-inkscape-font-specification:'Odin Rounded';stroke-width:13.62704086px"
           id="path166"
           inkscape:connector-curvature="0" />
      </g>
    </g>
  </g>
</svg>
